<svg width="34" height="32" viewBox="0 0 34 32" fill="none" xmlns="http://www.w3.org/2000/svg">
<path d="M7.82007 25.3334C8.72673 22.4 10.4267 21.3334 12.3817 21.3334H21.6184C23.5734 21.3334 25.2734 22.4 26.1801 25.3334" stroke="#9B9B9B" stroke-width="2" stroke-linecap="round" stroke-linejoin="round"/>
<path d="M17 17.3334C19.3472 17.3334 21.25 15.5425 21.25 13.3334C21.25 11.1242 19.3472 9.33337 17 9.33337C14.6528 9.33337 12.75 11.1242 12.75 13.3334C12.75 15.5425 14.6528 17.3334 17 17.3334Z" stroke="#9B9B9B" stroke-width="2" stroke-linecap="round" stroke-linejoin="round"/>
<path d="M16.9999 29.3333C24.824 29.3333 31.1666 23.3638 31.1666 16C31.1666 8.63616 24.824 2.66663 16.9999 2.66663C9.17588 2.66663 2.83325 8.63616 2.83325 16C2.83325 23.3638 9.17588 29.3333 16.9999 29.3333Z" stroke="#9B9B9B" stroke-width="2" stroke-linecap="round" stroke-linejoin="round"/>
</svg>
